# xmcd
#
# Track frame offsets: 
#        150
#        14472
#        38107
#        59392
#        72535
#        96625
#        121620
#        156415
#        175885
#        196095
#        219532
#        234555
#
# Disc length: 3471 seconds
#
# Revision: 6
# Processed by: cddbd v1.5.1PL0 Copyright (c) Steve Scherf et al.
# Submitted via: ExactAudioCopy v0.95a5
#
DISCID=aa0d8d0c
DTITLE=Various Artist - Unleashed Live
DYEAR=2000
DGENRE=Country
TTITLE0=Bruce Robison - The Good Life
TTITLE1=Bruce Robison - Rayne, Louisiana [Duet with Charlie Robison]
TTITLE2=Bruce Robison - Angry All The Time [With Special Guest Kelly W
TTITLE2=illis]
TTITLE3=Bruce Robison - Red Letter Day
TTITLE4=Charlie Robison - My Hometown
TTITLE5=Charlie Robison - Sunset Boulevard
TTITLE6=Charlie Robison - Loving County
TTITLE7=Charlie Robison - Barlight
TTITLE8=Jack Ingram - Mustang Burn
TTITLE9=Jack Ingram - Work This Out
TTITLE10=Jack Ingram - Travis County
TTITLE11=Jack Ingram - Barbie Doll
EXTD=
EXTT0=
EXTT1=
EXTT2=
EXTT3=
EXTT4=
EXTT5=
EXTT6=
EXTT7=
EXTT8=
EXTT9=
EXTT10=
EXTT11=
PLAYORDER=
